# xmcd
# 
# Track frame offsets:
#     150
#     23423
#     43157
#     59929
#     67751
#     83518
#     96977
#     117248
#     137533
#     161043
#     180788
#     200582
#     216993
#     231912
#     245462
#     261531
#     276582
#     294325
#     311633
#     327991
# 
# Disc length: 4627
# 
# Revision: 2
# Processed by: cddbd v1.5.2PL0 Copyright (c) Steve Scherf et al.
# Submitted via: fre:ac v1.0.31
# 
DISCID=2c121114
DTITLE=Various Artist - Spirit of Meditation - CD4 - Feng Shui
DYEAR=2008
DGENRE=Meditative
TTITLE0=Michael Goldberg - Terre Rouge
TTITLE1=Michael Goldberg - Calme Apres La Tempete
TTITLE2=Michael Goldberg - Eclaircie
TTITLE3=Michael Goldberg - L'elfe Sur La Falaise
TTITLE4=Michael Goldberg - Echarpes De Brume
TTITLE5=Michael Goldberg - La Valse Des Goelands
TTITLE6=Michael Goldberg - Le Chant Des Sirenes
TTITLE7=Michael Goldberg - Prendre Le Large
TTITLE8=Michael Goldberg - Le Chant Des Sonneurs
TTITLE9=Michael Goldberg - Rivages
TTITLE10=Nicolas Dri - Ben Hui
TTITLE11=Nicolas Dri - Bien Dans Son Etre
TTITLE12=Nicolas Dri - Da Bao
TTITLE13=Nicolas Dri - Detente Ludique
TTITLE14=Nicolas Dri - Le Salut
TTITLE15=Nicolas Dri - Libre De Pensees
TTITLE16=Nicolas Dri - Ming Men
TTITLE17=Nicolas Dri - Sentir L'espace
TTITLE18=Nicolas Dri - Simple Comme L'air
TTITLE19=Nicolas Dri - Yi Tang
EXTD=YEAR: 2012
EXTT0=
EXTT1=
EXTT2=
EXTT3=
EXTT4=
EXTT5=
EXTT6=
EXTT7=
EXTT8=
EXTT9=
EXTT10=
EXTT11=
EXTT12=
EXTT13=
EXTT14=
EXTT15=
EXTT16=
EXTT17=
EXTT18=
EXTT19=
PLAYORDER=
